<?xml version="1.0" standalone="no"?>
<!DOCTYPE svg PUBLIC "-//W3C//DTD SVG 20010904//EN"
 "http://www.w3.org/TR/2001/REC-SVG-20010904/DTD/svg10.dtd">
<svg version="1.0" xmlns="http://www.w3.org/2000/svg"
 width="2000.000000pt" height="2000.000000pt" viewBox="0 0 2000.000000 2000.000000"
 preserveAspectRatio="xMidYMid meet">
<metadata>
Created by potrace 1.11, written by Peter Selinger 2001-2013
</metadata>
<g transform="translate(0.000000,2000.000000) scale(0.100000,-0.100000)"
fill="#000000" stroke="none">
<path d="M9645 15899 c-1641 -102 -3143 -865 -4200 -2134 -169 -203 -396 -525
-530 -752 l-59 -101 -86 -17 c-680 -132 -1556 -344 -2353 -569 l-37 -10 0
-2987 0 -2988 68 20 c543 157 1131 306 1730 440 337 75 745 158 753 153 4 -2
33 -46 64 -96 83 -134 240 -357 351 -499 311 -396 734 -810 1129 -1102 1203
-891 2675 -1291 4161 -1132 1743 187 3320 1147 4291 2613 52 78 96 142 99 142
8 0 446 -98 624 -140 428 -100 1130 -283 1413 -369 l97 -29 0 2988 0 2987
-252 71 c-518 146 -961 256 -1610 402 l-97 21 -66 116 c-144 250 -307 492
-484 718 -307 391 -731 805 -1126 1098 -1116 829 -2502 1242 -3880 1156z m835
-595 c426 -39 790 -115 1195 -249 986 -327 1827 -913 2491 -1735 58 -71 201
-264 237 -321 l17 -25 -178 33 c-1274 239 -2578 388 -3777 434 -346 13 -1312
7 -1615 -10 -828 -47 -1542 -118 -2340 -231 -273 -39 -836 -129 -858 -137 -19
-8 18 46 142 205 192 249 462 535 696 739 1104 963 2541 1430 3990 1297z m77
-2071 c165 -54 266 -170 292 -334 15 -88 15 -2429 0 -2519 -22 -142 -98 -247
-217 -303 l-67 -32 -415 -7 c-228 -4 -475 -10 -547 -13 l-133 -7 0 -1003 0
-1003 -72 -6 c-40 -3 -156 -10 -258 -16 -102 -6 -211 -13 -242 -17 l-58 -6 0
2616 0 2615 58 6 c267 28 949 54 1352 51 216 -2 252 -4 307 -22z m3188 -324
c440 -88 890 -195 987 -234 167 -68 301 -224 337 -393 8 -38 11 -412 11 -1306
0 -1219 -1 -1256 -20 -1317 -25 -81 -66 -131 -137 -165 -89 -44 -157 -39 -453
34 -248 61 -704 162 -734 162 -15 0 -16 -89 -16 -1003 l0 -1004 -164 32 c-91
18 -230 43 -310 56 l-146 23 0 2617 0 2616 198 -34 c108 -18 310 -56 447 -84z
m-8205 -2615 l0 -2326 23 5 c12 2 146 36 297 75 247 63 716 172 740 172 6 0
10 -111 10 -284 0 -262 -1 -285 -17 -290 -10 -3 -112 -26 -228 -51 -241 -53
-577 -136 -812 -201 -162 -44 -585 -168 -617 -180 -15 -6 -16 183 -16 2610 l0
2615 103 32 c162 51 491 147 505 148 9 1 12 -470 12 -2325z m4950 -2824 c1019
-41 2039 -148 3115 -326 348 -57 780 -136 787 -143 5 -4 -24 -52 -64 -106
-413 -575 -944 -1069 -1552 -1442 -182 -112 -518 -283 -721 -368 -219 -92
-624 -224 -835 -273 -252 -59 -632 -116 -865 -129 -180 -11 -752 -7 -855 5
-97 12 -292 43 -460 73 -63 11 -131 22 -150 24 -52 6 -454 107 -460 116 -3 5
-79 33 -168 64 -542 186 -1078 476 -1531 829 -328 255 -652 577 -914 908 -113
142 -267 362 -259 369 10 9 579 102 972 158 887 128 1739 208 2540 240 291 12
1140 12 1420 1z"/>
<path d="M9603 12673 l-133 -4 0 -1040 0 -1041 128 6 c70 3 238 9 375 12 l247
6 0 1034 0 1034 -242 -2 c-134 -1 -303 -4 -375 -5z"/>
<path d="M13720 11301 c0 -985 1 -1041 18 -1041 19 0 457 -94 620 -133 l102
-25 0 1038 0 1038 -112 27 c-94 22 -503 111 -600 131 l-28 6 0 -1041z"/>
</g>
</svg>
